<svg version="1.1" xmlns="http://www.w3.org/2000/svg" xmlns:xlink="http://www.w3.org/1999/xlink" width="48px" height="48px" viewBox="0,0,256,256"><g fill="#377a55" fill-rule="nonzero" stroke="none" stroke-width="1" stroke-linecap="butt" stroke-linejoin="miter" stroke-miterlimit="10" stroke-dasharray="" stroke-dashoffset="0" font-family="none" font-weight="none" font-size="none" text-anchor="none" style="mix-blend-mode: normal"><g transform="scale(5.33333,5.33333)"><path d="M16.5,5c-2.4675,0 -4.5,2.0325 -4.5,4.5v1.5h-1.5c-3.57194,0 -6.5,2.92806 -6.5,6.5v14c0,2.4675 2.0325,4.5 4.5,4.5h3.5v2.5c0,2.4675 2.0325,4.5 4.5,4.5h15c2.4675,0 4.5,-2.0325 4.5,-4.5v-2.5h3.5c2.4675,0 4.5,-2.0325 4.5,-4.5v-14c0,-3.57194 -2.92806,-6.5 -6.5,-6.5h-1.5v-1.5c0,-2.4675 -2.0325,-4.5 -4.5,-4.5zM16.5,8h15c0.8465,0 1.5,0.6535 1.5,1.5v1.5h-18v-1.5c0,-0.8465 0.6535,-1.5 1.5,-1.5zM10.5,14h27c1.95006,0 3.5,1.54994 3.5,3.5v14c0,0.8465 -0.6535,1.5 -1.5,1.5h-3.5v-3.5c0,-2.4675 -2.0325,-4.5 -4.5,-4.5h-15c-2.4675,0 -4.5,2.0325 -4.5,4.5v3.5h-3.5c-0.8465,0 -1.5,-0.6535 -1.5,-1.5v-14c0,-1.95006 1.54994,-3.5 3.5,-3.5zM16.5,28h15c0.8465,0 1.5,0.6535 1.5,1.5v9c0,0.8465 -0.6535,1.5 -1.5,1.5h-15c-0.8465,0 -1.5,-0.6535 -1.5,-1.5v-9c0,-0.8465 0.6535,-1.5 1.5,-1.5z"></path></g></g></svg>